<svg xmlns="http://www.w3.org/2000/svg" viewBox="0 0 539.07 99.44"><defs><style>.cls-1{fill:#e04b3c;}</style></defs><title>Asset 1</title><g id="Layer_2" data-name="Layer 2"><g id="Layer_2-2" data-name="Layer 2"><path d="M91.42,35.31c14.18,0,25.41,9.48,25.41,23.58S105.6,82.21,91.51,82.21,66.19,72.9,66.19,58.89,77.41,35.31,91.42,35.31Zm.09,34.37c5.48,0,10.18-4.09,10.18-10.79s-4.7-11-10.18-11-10.18,4.26-10.18,11S86,69.68,91.51,69.68Z"/><path d="M126.14,50.88A1.75,1.75,0,0,0,124.22,49h-3.3V36.35h13.92c4.44,0,6.35,1.92,6.35,6.35V66.63a1.75,1.75,0,0,0,1.92,1.92h3.3V81.17H132.49c-4.44,0-6.35-1.92-6.35-6.36ZM127.27,19h12.62V31.13H127.27Z"/><path d="M155.2,50.88A1.74,1.74,0,0,0,153.29,49H150V36.35h13.4c4.09,0,6.27,2,6.27,5V42a8.88,8.88,0,0,1-.09,1h.17c2.09-3.48,6.27-7.74,14.19-7.74C193,35.31,200,39.48,200,52.1V66.63a1.75,1.75,0,0,0,1.92,1.92h3.31V81.17H191.31c-4.43,0-6.35-1.92-6.35-6.36V54.89c0-4.18-1.65-5.92-5-5.92a8.81,8.81,0,0,0-8.87,6.44,18,18,0,0,0-.88,5.92V81.17H155.2Z"/><path d="M229,35.31c9.14,0,13,5.22,13,5.22h.17v-.61c0-1.22,1.39-3.57,4.79-3.57h13.57V49h-3.13c-1.13,0-1.92.61-1.92,1.65V77.08c0,16.35-13.05,22.36-25.32,22.36a39.7,39.7,0,0,1-17-4l4.35-11.75A29.83,29.83,0,0,0,230,86.56c5.4,0,10.36-2,10.36-8.61v-.7c0-.52.09-1.65.09-1.65h-.18c-2.61,2.87-6,4.26-11.22,4.26-13.49,0-20.19-11-20.19-22.54S215.42,35.31,229,35.31ZM240.74,57.5c0-7.92-4.18-9.66-8.7-9.66-5.31,0-8,3.83-8,9,0,5.57,2.61,10.53,8.61,10.53C236.56,67.33,240.74,65.33,240.74,57.5Z"/><path d="M319.4,17.9c18.79,0,32.54,13.93,32.54,31.77,0,18.27-13.75,32.54-32.54,32.54s-32.55-14.27-32.55-32.54C286.85,31.83,300.6,17.9,319.4,17.9Zm0,49.95c9.05,0,16.36-7.83,16.36-18.18,0-9.92-7.31-17.41-16.36-17.41S303,39.75,303,49.67C303,60,310.35,67.85,319.4,67.85Z"/><path d="M361.34,50.88A1.75,1.75,0,0,0,359.42,49h-3.3V36.35H370c4.44,0,6.35,1.92,6.35,6.35V62.63c0,4.18,1.66,5.92,4.79,5.92,6.44,0,9.48-5.66,9.48-12.36V36.35h15.06V66.63a1.74,1.74,0,0,0,1.91,1.92h3.31V81.17H397.62c-4.09,0-6.35-2-6.35-5v-.61a8.63,8.63,0,0,1,.09-1h-.17c-2.44,4.78-7.92,7.74-13.93,7.74-8.87,0-15.92-4.18-15.92-16.79Z"/><path d="M419.46,48.1h-5.74V36.35h6.18V24.26h14.62V36.35h9.4V48.1h-9.4V62.63c0,5.05,5.13,5.74,8,5.74,1.22,0,2-.08,2-.08v13a29,29,0,0,1-4.09.26c-7.13,0-21-1.91-21-17Z"/><path d="M32.2,18c15.92,0,23.4,8.09,23.4,8.09L46.9,37.13a25.28,25.28,0,0,0-14.36-5c-8.26,0-16.36,6.43-16.36,17.31,0,12.27,8.27,18.45,17.15,18.45A19.51,19.51,0,0,0,46.21,63.4V61.06a1.75,1.75,0,0,0-1.92-1.92H40.55v-13H53.69C58.13,46.09,60,48,60,52.44V67.58S55,82.29,30.11,82.29C14.44,82.29,0,70.8,0,49.57,0,31.73,13.66,18,32.2,18Z"/><path class="cls-1" d="M502.91,0a36.16,36.16,0,0,0-36.16,36.16c0,21.36,36.16,62.6,36.16,62.6s36.16-39.65,36.16-62.6A36.16,36.16,0,0,0,502.91,0Zm-1,18.55a2.68,2.68,0,0,1,1.06.22,2.19,2.19,0,0,1,.48.25,0,0,0,0,0,0,0,2.52,2.52,0,0,1,.54.49,24.69,24.69,0,0,1,6.12,9.71,21.48,21.48,0,0,0-7.4-1.62,24.1,24.1,0,0,0-2.92-4.49.27.27,0,0,0-.07-.08,3,3,0,0,1-.27-.42,1.17,1.17,0,0,1-.05-.11v0a2.62,2.62,0,0,1-.26-1.15A2.78,2.78,0,0,1,501.94,18.55Zm19.64,24.27h0l-.06.37A30.07,30.07,0,0,1,516.86,56a17.91,17.91,0,0,1-6.55,6.53l-.63.34-.67.21a17.94,17.94,0,0,1-4.55.69h-.77c-.39,0-.77,0-1.16-.07h-.18l-.26,0-.16,0a17,17,0,0,1-3-.64l-.11,0A17.81,17.81,0,0,1,486.3,46v0a1.69,1.69,0,0,1,0-.23,3.69,3.69,0,0,1,.15-.94,4.36,4.36,0,0,1,.28-.79l.09-.16a4.57,4.57,0,0,1,8.38.68,3.42,3.42,0,0,1,.16.63c0,.1,0,.21.05.31v0A6.63,6.63,0,0,0,505.28,50l.13-.08A6.62,6.62,0,0,0,506,39.08l-.12-.09a6.58,6.58,0,0,0-8.1.13h0l-.19.16a4,4,0,0,1-.56.39,4.24,4.24,0,0,1-5.7-5.94,4,4,0,0,1,.47-.62l0,0a4,4,0,0,1,.48-.44,18.32,18.32,0,0,1,2.92-2.1h0c.2-.12.6-.33.6-.33l.65-.2a17.3,17.3,0,0,1,3.9-.68h.11l1,0h.79a17.77,17.77,0,0,1,3.66.55,0,0,0,0,0,0,0h0q.75.19,1.47.45l.13.05a17.05,17.05,0,0,1,1.75.75l.14.07a17.85,17.85,0,0,1,5.37,4.15h0l0,0,.07.07h0l.05,0,.37.45,0,0h0a1.3,1.3,0,0,0,.76.24,1.35,1.35,0,0,0,1.35-1.35,1.27,1.27,0,0,0-.11-.52h0a.18.18,0,0,0,0-.07l-.1-.12-.27-.28-.11-.13-.07-.07-.06-.06a17.63,17.63,0,0,0-3.9-3c-2.13-5.8-5.13-10.4-6.9-11.69-1.59-1.15-1.68-2.22-1.68-2.47v0a3.1,3.1,0,0,1,3.09-2.92h.1a2.6,2.6,0,0,1,.74.11l.43.16c7.61,2.87,13.24,12.79,13.24,24.56A36.42,36.42,0,0,1,521.58,42.82Z"/></g></g></svg>